<?xml version="1.0" encoding="UTF-8"?>
<svg id="Capa_2" data-name="Capa 2" xmlns="http://www.w3.org/2000/svg" viewBox="0 0 146.96 104">
  <defs>
    <style>
      .cls-1 {
        fill: #00ccbe;
      }
    </style>
  </defs>
  <g id="Capa_2-2" data-name="Capa 2">
    <g>
      <path class="cls-1" d="M141.99,67.53c-.61,0-1.23-.11-1.83-.35l-1.63-.65c-2.97-1.18-5.54-3.33-7.42-6.22l-6.85-10.52c-1.09-1.67-2.54-2.63-4.08-2.69-1.46-.04-2.89.72-4.02,2.19l-7.21,9.38c-2.97,3.86-7.25,6.07-11.75,6.07h-.09c-4.54-.03-8.84-2.31-11.79-6.26l-7.35-9.82c-1.09-1.46-2.48-2.27-3.91-2.27-1.46-.01-2.81.78-3.91,2.21l-7.7,10.08c-2.97,3.89-7.26,6.12-11.78,6.12h0c-4.52,0-8.82-2.24-11.78-6.13l-7.55-9.9c-1.09-1.43-2.47-2.22-3.89-2.22-.01,0-.03,0-.04,0-1.46.02-2.86.85-3.95,2.36l-8.78,12.09c-1.78,2.45-4.11,4.32-6.73,5.4l-1.09.45c-2.54,1.04-5.44-.17-6.48-2.7-1.04-2.54.17-5.44,2.7-6.48l1.09-.45c.92-.38,1.77-1.09,2.47-2.05l8.78-12.09c2.94-4.05,7.27-6.4,11.87-6.45.05,0,.11,0,.16,0,4.53,0,8.81,2.23,11.79,6.13l7.55,9.9c1.09,1.43,2.47,2.22,3.89,2.22h0c1.42,0,2.8-.79,3.89-2.21l7.7-10.08c2.97-3.89,7.26-6.12,11.78-6.12.02,0,.04,0,.07,0,4.55.02,8.86,2.3,11.82,6.26l7.35,9.82c1.09,1.46,2.48,2.26,3.91,2.27h.03c1.41,0,2.78-.78,3.87-2.19l7.21-9.38c3.1-4.04,7.57-6.26,12.28-6.06,4.78.19,9.16,2.81,12.01,7.2l6.85,10.52c.75,1.16,1.71,1.99,2.75,2.41l1.63.65c2.55,1.01,3.8,3.9,2.79,6.45-.77,1.95-2.64,3.14-4.62,3.14Z"/>
      <path class="cls-1" d="M141.99,31.06c-.61,0-1.23-.11-1.83-.35l-1.63-.65c-2.97-1.18-5.53-3.33-7.42-6.22l-6.85-10.52c-1.09-1.68-2.54-2.63-4.08-2.69-1.46-.04-2.89.72-4.02,2.19l-7.21,9.38c-2.97,3.86-7.25,6.07-11.75,6.07h-.09c-4.54-.03-8.84-2.31-11.79-6.26l-7.35-9.82c-1.09-1.46-2.48-2.27-3.92-2.27h-.02c-1.42,0-2.8.79-3.89,2.21l-7.7,10.08c-2.97,3.89-7.26,6.12-11.78,6.12h0c-4.52,0-8.82-2.24-11.78-6.13l-7.55-9.9c-1.09-1.43-2.47-2.22-3.89-2.22-.01,0-.03,0-.04,0-1.46.02-2.86.85-3.95,2.36l-8.78,12.09c-1.78,2.45-4.11,4.32-6.73,5.4l-1.09.45c-2.54,1.04-5.44-.17-6.48-2.7-1.04-2.54.17-5.44,2.7-6.48l1.09-.45c.92-.38,1.77-1.09,2.47-2.05L15.42,6.61C18.36,2.57,22.69.22,27.3.16c.05,0,.11,0,.16,0,4.53,0,8.82,2.23,11.79,6.13l7.55,9.9c1.09,1.43,2.47,2.22,3.89,2.22h0c1.42,0,2.8-.79,3.89-2.21l7.7-10.08c2.97-3.89,7.26-6.12,11.78-6.12h.07c4.55.02,8.86,2.3,11.82,6.26l7.35,9.82c1.09,1.46,2.48,2.26,3.91,2.27h.03c1.41,0,2.78-.78,3.87-2.19l7.21-9.38c3.1-4.04,7.6-6.26,12.28-6.06,4.78.19,9.16,2.81,12.01,7.2l6.85,10.52c.75,1.16,1.71,1.99,2.75,2.41l1.63.65c2.55,1.01,3.8,3.9,2.79,6.45-.77,1.95-2.64,3.14-4.62,3.14Z"/>
      <path class="cls-1" d="M141.99,104c-.61,0-1.23-.11-1.83-.35l-1.63-.65c-2.97-1.18-5.54-3.33-7.42-6.22l-6.85-10.52c-1.09-1.67-2.54-2.63-4.08-2.69-1.49-.06-2.89.72-4.02,2.19l-7.21,9.38c-2.97,3.86-7.25,6.07-11.75,6.07h-.09c-4.54-.03-8.84-2.31-11.79-6.26l-7.35-9.82c-1.09-1.46-2.48-2.27-3.91-2.27-1.44.01-2.81.78-3.91,2.21l-7.7,10.08c-2.97,3.89-7.26,6.12-11.78,6.12h0c-4.52,0-8.82-2.24-11.78-6.13l-7.55-9.9c-1.09-1.43-2.47-2.22-3.89-2.22h-.04c-1.46.02-2.86.85-3.95,2.36l-8.78,12.09c-1.78,2.45-4.11,4.32-6.73,5.4l-1.09.45c-2.54,1.04-5.44-.17-6.48-2.7-1.04-2.54.17-5.44,2.7-6.48l1.09-.45c.92-.38,1.77-1.09,2.47-2.05l8.78-12.09c2.94-4.05,7.27-6.4,11.87-6.45.05,0,.11,0,.16,0,4.53,0,8.82,2.23,11.79,6.13l7.55,9.9c1.09,1.43,2.47,2.22,3.89,2.22h0c1.42,0,2.8-.79,3.89-2.21l7.7-10.08c2.97-3.89,7.26-6.12,11.78-6.12h.07c4.55.02,8.86,2.3,11.82,6.26l7.35,9.82c1.09,1.46,2.48,2.26,3.91,2.27,1.39,0,2.8-.77,3.9-2.19l7.21-9.38c3.1-4.04,7.58-6.25,12.28-6.06,4.78.19,9.16,2.81,12.01,7.2l6.85,10.52c.75,1.16,1.71,1.99,2.75,2.41l1.63.65c2.55,1.01,3.8,3.9,2.79,6.45-.77,1.95-2.64,3.14-4.62,3.14Z"/>
    </g>
  </g>
</svg>