<?xml version="1.0" encoding="UTF-8"?>
<svg id="Capa_2" data-name="Capa 2" xmlns="http://www.w3.org/2000/svg" viewBox="0 0 739.45 104">
  <defs>
    <style>
      .cls-1 {
        fill: #101010;
      }

      .cls-2 {
        fill: #00ccbe;
      }
    </style>
  </defs>
  <g id="Capa_2-2" data-name="Capa 2">
    <g>
      <g>
        <path class="cls-2" d="M141.99,67.53c-.61,0-1.23-.11-1.83-.35l-1.63-.65c-2.97-1.18-5.54-3.33-7.42-6.22l-6.85-10.52c-1.09-1.67-2.54-2.63-4.08-2.69-1.46-.04-2.89.72-4.02,2.19l-7.21,9.38c-2.97,3.86-7.25,6.07-11.75,6.07h-.09c-4.54-.03-8.84-2.31-11.79-6.26l-7.35-9.82c-1.09-1.46-2.48-2.27-3.91-2.27-1.46-.01-2.81.78-3.91,2.21l-7.7,10.08c-2.97,3.89-7.26,6.12-11.78,6.12h0c-4.52,0-8.82-2.24-11.78-6.13l-7.55-9.9c-1.09-1.43-2.47-2.22-3.89-2.22-.01,0-.03,0-.04,0-1.46.02-2.86.85-3.95,2.36l-8.78,12.09c-1.78,2.45-4.11,4.32-6.73,5.4l-1.09.45c-2.54,1.04-5.44-.17-6.48-2.7-1.04-2.54.17-5.44,2.7-6.48l1.09-.45c.92-.38,1.77-1.09,2.47-2.05l8.78-12.09c2.94-4.05,7.27-6.4,11.87-6.45.05,0,.11,0,.16,0,4.53,0,8.81,2.23,11.79,6.13l7.55,9.9c1.09,1.43,2.47,2.22,3.89,2.22h0c1.42,0,2.8-.79,3.89-2.21l7.7-10.08c2.97-3.89,7.26-6.12,11.78-6.12.02,0,.04,0,.07,0,4.55.02,8.86,2.3,11.82,6.26l7.35,9.82c1.09,1.46,2.48,2.26,3.91,2.27h.03c1.41,0,2.78-.78,3.87-2.19l7.21-9.38c3.1-4.04,7.57-6.26,12.28-6.06,4.78.19,9.16,2.81,12.01,7.2l6.85,10.52c.75,1.16,1.71,1.99,2.75,2.41l1.63.65c2.55,1.01,3.8,3.9,2.79,6.45-.77,1.95-2.64,3.14-4.62,3.14Z"/>
        <path class="cls-2" d="M141.99,31.06c-.61,0-1.23-.11-1.83-.35l-1.63-.65c-2.97-1.18-5.53-3.33-7.42-6.22l-6.85-10.52c-1.09-1.68-2.54-2.63-4.08-2.69-1.46-.04-2.89.72-4.02,2.19l-7.21,9.38c-2.97,3.86-7.25,6.07-11.75,6.07h-.09c-4.54-.03-8.84-2.31-11.79-6.26l-7.35-9.82c-1.09-1.46-2.48-2.27-3.92-2.27h-.02c-1.42,0-2.8.79-3.89,2.21l-7.7,10.08c-2.97,3.89-7.26,6.12-11.78,6.12h0c-4.52,0-8.82-2.24-11.78-6.13l-7.55-9.9c-1.09-1.43-2.47-2.22-3.89-2.22-.01,0-.03,0-.04,0-1.46.02-2.86.85-3.95,2.36l-8.78,12.09c-1.78,2.45-4.11,4.32-6.73,5.4l-1.09.45c-2.54,1.04-5.44-.17-6.48-2.7-1.04-2.54.17-5.44,2.7-6.48l1.09-.45c.92-.38,1.77-1.09,2.47-2.05L15.42,6.61C18.36,2.57,22.69.22,27.3.16c.05,0,.11,0,.16,0,4.53,0,8.82,2.23,11.79,6.13l7.55,9.9c1.09,1.43,2.47,2.22,3.89,2.22h0c1.42,0,2.8-.79,3.89-2.21l7.7-10.08c2.97-3.89,7.26-6.12,11.78-6.12h.07c4.55.02,8.86,2.3,11.82,6.26l7.35,9.82c1.09,1.46,2.48,2.26,3.91,2.27h.03c1.41,0,2.78-.78,3.87-2.19l7.21-9.38c3.1-4.04,7.6-6.26,12.28-6.06,4.78.19,9.16,2.81,12.01,7.2l6.85,10.52c.75,1.16,1.71,1.99,2.75,2.41l1.63.65c2.55,1.01,3.8,3.9,2.79,6.45-.77,1.95-2.64,3.14-4.62,3.14Z"/>
        <path class="cls-2" d="M141.99,104c-.61,0-1.23-.11-1.83-.35l-1.63-.65c-2.97-1.18-5.54-3.33-7.42-6.22l-6.85-10.52c-1.09-1.67-2.54-2.63-4.08-2.69-1.49-.06-2.89.72-4.02,2.19l-7.21,9.38c-2.97,3.86-7.25,6.07-11.75,6.07h-.09c-4.54-.03-8.84-2.31-11.79-6.26l-7.35-9.82c-1.09-1.46-2.48-2.27-3.91-2.27-1.44.01-2.81.78-3.91,2.21l-7.7,10.08c-2.97,3.89-7.26,6.12-11.78,6.12h0c-4.52,0-8.82-2.24-11.78-6.13l-7.55-9.9c-1.09-1.43-2.47-2.22-3.89-2.22h-.04c-1.46.02-2.86.85-3.95,2.36l-8.78,12.09c-1.78,2.45-4.11,4.32-6.73,5.4l-1.09.45c-2.54,1.04-5.44-.17-6.48-2.7-1.04-2.54.17-5.44,2.7-6.48l1.09-.45c.92-.38,1.77-1.09,2.47-2.05l8.78-12.09c2.94-4.05,7.27-6.4,11.87-6.45.05,0,.11,0,.16,0,4.53,0,8.82,2.23,11.79,6.13l7.55,9.9c1.09,1.43,2.47,2.22,3.89,2.22h0c1.42,0,2.8-.79,3.89-2.21l7.7-10.08c2.97-3.89,7.26-6.12,11.78-6.12h.07c4.55.02,8.86,2.3,11.82,6.26l7.35,9.82c1.09,1.46,2.48,2.26,3.91,2.27,1.39,0,2.8-.77,3.9-2.19l7.21-9.38c3.1-4.04,7.58-6.25,12.28-6.06,4.78.19,9.16,2.81,12.01,7.2l6.85,10.52c.75,1.16,1.71,1.99,2.75,2.41l1.63.65c2.55,1.01,3.8,3.9,2.79,6.45-.77,1.95-2.64,3.14-4.62,3.14Z"/>
      </g>
      <g>
        <path class="cls-1" d="M201.47,24.29c0,3.6,1.17,6.55,3.52,8.84,2.35,2.29,5.38,4.23,9.09,5.81,3.71,1.58,7.58,3.19,11.62,4.83,4.04,1.64,7.91,3.6,11.62,5.89,3.71,2.29,6.71,5.18,9,8.68,2.29,3.49,3.44,8.02,3.44,13.59,0,6.66-1.72,12.28-5.16,16.86-3.44,4.58-8.08,8.05-13.92,10.4-5.84,2.35-12.25,3.52-19.24,3.52-6.44,0-12.2-.68-17.27-2.05-5.08-1.36-9.2-2.81-12.36-4.34v-25.05h7.37c.98,6.77,3.36,12.12,7.12,16.04,3.77,3.93,8.92,5.89,15.47,5.89,5.57,0,10.04-1.42,13.42-4.26,3.38-2.84,5.08-6.82,5.08-11.95,0-4.04-1.15-7.31-3.44-9.82-2.29-2.51-5.27-4.61-8.92-6.3-3.66-1.69-7.53-3.3-11.62-4.83-4.09-1.53-7.97-3.36-11.62-5.48-3.66-2.13-6.66-4.86-9-8.19-2.35-3.33-3.52-7.67-3.52-13.02,0-6.22,1.56-11.51,4.67-15.88,3.11-4.36,7.29-7.67,12.52-9.91,5.24-2.24,10.91-3.36,17.03-3.36s11.49.63,15.8,1.88c4.31,1.26,8.27,2.76,11.87,4.5v21.45h-7.37c-.76-5.67-2.76-10.2-5.98-13.59-3.22-3.38-7.61-5.08-13.18-5.08-5.13,0-9.09,1.42-11.87,4.26-2.78,2.84-4.17,6.38-4.17,10.64Z"/>
        <path class="cls-1" d="M266.63,49.34c0-3.27-.71-5.48-2.13-6.63-1.42-1.15-3.55-1.99-6.38-2.54v-6.88l18.01-6.71h8.68v43.71c0,6.66,1.28,11.41,3.85,14.24,2.56,2.84,6.63,4.26,12.2,4.26,3.38,0,6.55-.38,9.5-1.15,2.95-.76,5.51-1.75,7.7-2.95l1.8,4.09c-3.93,3.38-8.35,6.47-13.26,9.25-4.91,2.78-10.37,4.17-16.37,4.17-7.31,0-13.07-2.54-17.27-7.61-4.2-5.08-6.3-12.2-6.3-21.37v-23.9ZM314.6,89.45v-40.27c0-3.05-.74-5.21-2.21-6.47-1.47-1.25-3.58-2.1-6.3-2.54v-6.88l18.01-6.71h8.68v52.72c0,3.06.68,5.27,2.05,6.63,1.36,1.37,3.57,2.32,6.63,2.87v6.88l-16.04,5.89h-3.44l-7.37-12.12Z"/>
        <path class="cls-1" d="M387.62,102.06c-6.99,0-13.24-1.56-18.75-4.67-5.51-3.11-9.8-7.5-12.85-13.18-3.06-5.67-4.58-12.28-4.58-19.81s1.64-14.71,4.91-20.55c3.27-5.84,7.7-10.37,13.26-13.59,5.57-3.22,11.79-4.83,18.66-4.83s12.79,1.53,18.42,4.58c5.62,3.06,10.12,7.4,13.51,13.02,3.38,5.62,5.08,12.36,5.08,20.22s-1.61,14.38-4.83,20.22c-3.22,5.84-7.67,10.4-13.34,13.67-5.68,3.27-12.17,4.91-19.48,4.91ZM388.6,92.56c3.71,0,6.79-1.17,9.25-3.52,2.46-2.35,4.34-5.65,5.65-9.91,1.31-4.26,1.96-9.11,1.96-14.57s-.68-10.72-2.05-15.14c-1.37-4.42-3.33-7.94-5.89-10.56-2.57-2.62-5.76-3.93-9.58-3.93-3.49,0-6.52,1.17-9.09,3.52-2.57,2.35-4.5,5.57-5.81,9.66-1.31,4.09-1.96,8.92-1.96,14.49s.68,10.92,2.05,15.39c1.36,4.48,3.36,8.02,5.98,10.64s5.78,3.93,9.5,3.93Z"/>
        <path class="cls-1" d="M472.43,100.91h-35.04v-6.88c2.95-.66,5.1-1.64,6.47-2.95,1.36-1.31,2.05-3.44,2.05-6.38v-35.36c0-3.05-.68-5.21-2.05-6.47-1.37-1.25-3.52-2.15-6.47-2.7v-6.88l18.01-6.71h8.02v11.46h.65v46.5c0,3.17.71,5.4,2.13,6.71,1.42,1.31,3.49,2.24,6.22,2.78v6.88ZM522.36,100.91h-34.87v-6.88c2.73-.54,4.77-1.47,6.14-2.78,1.36-1.31,2.05-3.55,2.05-6.71v-27.34c0-6.77-1.23-11.57-3.68-14.41-2.46-2.84-6.36-4.26-11.71-4.26-3.49,0-6.69.41-9.58,1.23-2.89.82-5.54,1.83-7.94,3.03l-1.8-4.26c4.04-3.49,8.49-6.55,13.34-9.17,4.86-2.62,10.29-3.93,16.29-3.93,7.31,0,13.02,2.51,17.11,7.53,4.09,5.02,6.14,12.11,6.14,21.28v30.45c0,2.95.71,5.08,2.13,6.38,1.42,1.31,3.55,2.29,6.39,2.95v6.88Z"/>
        <path class="cls-1" d="M568.2,102.06c-6.99,0-13.24-1.56-18.75-4.67-5.51-3.11-9.8-7.5-12.85-13.18-3.06-5.67-4.58-12.28-4.58-19.81s1.64-14.71,4.91-20.55c3.27-5.84,7.7-10.37,13.26-13.59,5.57-3.22,11.79-4.83,18.66-4.83s12.79,1.53,18.42,4.58c5.62,3.06,10.12,7.4,13.51,13.02,3.38,5.62,5.08,12.36,5.08,20.22s-1.61,14.38-4.83,20.22c-3.22,5.84-7.67,10.4-13.34,13.67-5.68,3.27-12.17,4.91-19.48,4.91ZM569.18,92.56c3.71,0,6.79-1.17,9.25-3.52,2.46-2.35,4.34-5.65,5.65-9.91,1.31-4.26,1.96-9.11,1.96-14.57s-.68-10.72-2.05-15.14c-1.37-4.42-3.33-7.94-5.89-10.56-2.57-2.62-5.76-3.93-9.58-3.93-3.49,0-6.52,1.17-9.09,3.52-2.57,2.35-4.5,5.57-5.81,9.66-1.31,4.09-1.96,8.92-1.96,14.49s.68,10.92,2.05,15.39c1.36,4.48,3.36,8.02,5.98,10.64s5.78,3.93,9.5,3.93Z"/>
        <path class="cls-1" d="M662.99,88.96l2.29,6.38c-2.62,1.75-5.89,3.3-9.82,4.67s-7.86,2.05-11.79,2.05c-6.77,0-11.95-2.02-15.55-6.06-3.6-4.04-5.4-9.5-5.4-16.37v-43.88h-7.7v-7.37c4.36-1.42,8.05-3.63,11.05-6.63s5.1-6.85,6.3-11.54h8.35v66.96c0,4.04.98,7.34,2.95,9.91,1.96,2.57,5.02,3.85,9.17,3.85,1.74,0,3.49-.19,5.24-.57,1.75-.38,3.38-.84,4.91-1.39ZM662.17,35.75h-33.4v-9.17h33.4v9.17Z"/>
        <path class="cls-1" d="M734.37,86.01l2.62,7.04c-2.95,1.96-6.79,3.96-11.54,5.98s-10.4,3.03-16.94,3.03c-7.1,0-13.4-1.58-18.91-4.75-5.51-3.17-9.88-7.53-13.1-13.1-3.22-5.57-4.83-12.06-4.83-19.48s1.56-14.24,4.67-20.14c3.11-5.89,7.39-10.56,12.85-14,5.46-3.44,11.68-5.16,18.66-5.16s12.66,1.69,17.35,5.08c4.69,3.38,8.24,7.97,10.64,13.75,2.4,5.79,3.6,12.33,3.6,19.65h-51.74v-8.02l34.38-1.64c-.11-3.27-.68-6.36-1.72-9.25-1.04-2.89-2.65-5.26-4.83-7.12-2.18-1.85-4.91-2.78-8.19-2.78-3.82,0-6.93,1.23-9.33,3.68-2.4,2.46-4.17,5.59-5.32,9.41-1.15,3.82-1.72,7.8-1.72,11.95,0,9.28,2.21,16.62,6.63,22.02,4.42,5.4,10.29,8.1,17.6,8.1,3.05,0,6.38-.46,9.99-1.39,3.6-.93,6.66-1.88,9.17-2.87Z"/>
      </g>
    </g>
  </g>
</svg>