<?xml version="1.0" encoding="UTF-8"?>
<svg id="Capa_2" data-name="Capa 2" xmlns="http://www.w3.org/2000/svg" viewBox="0 0 739.96 104">
  <defs>
    <style>
      .cls-1 {
        fill: #101010;
      }

      .cls-2 {
        fill: #00ccbe;
      }
    </style>
  </defs>
  <g id="Capa_2-2" data-name="Capa 2">
    <g>
      <g>
        <path class="cls-1" d="M209.85,24.98c0,3.71,1.17,6.74,3.52,9.09,2.35,2.35,5.37,4.34,9.09,5.98,3.71,1.64,7.61,3.27,11.71,4.91,4.09,1.64,7.99,3.58,11.71,5.81,3.71,2.24,6.77,5.08,9.17,8.51,2.4,3.44,3.6,7.94,3.6,13.51,0,6.55-1.67,12.09-4.99,16.62-3.33,4.53-7.8,7.97-13.42,10.31-5.62,2.35-11.87,3.52-18.75,3.52-6.22,0-11.76-.65-16.62-1.96-4.86-1.31-8.92-2.84-12.2-4.58v-23.74h6.39c.98,6.77,3.38,12.06,7.2,15.88,3.82,3.82,9.11,5.73,15.88,5.73,6,0,10.83-1.5,14.49-4.5,3.66-3,5.48-7.29,5.48-12.85,0-4.26-1.17-7.67-3.52-10.23-2.35-2.56-5.38-4.72-9.09-6.47-3.71-1.74-7.61-3.38-11.71-4.91-4.09-1.53-8-3.36-11.71-5.48-3.71-2.13-6.74-4.83-9.09-8.1-2.35-3.27-3.52-7.53-3.52-12.77,0-6,1.45-11.13,4.34-15.39,2.89-4.26,6.82-7.5,11.79-9.74,4.96-2.24,10.5-3.36,16.62-3.36s11.1.6,15.31,1.8c4.2,1.2,8.1,2.73,11.71,4.58v20.79h-6.39c-.76-5.89-2.86-10.48-6.3-13.75s-8-4.91-13.67-4.91c-5.35,0-9.52,1.42-12.52,4.26-3,2.84-4.5,6.66-4.5,11.46Z"/>
        <path class="cls-1" d="M276.81,48.23c0-3.17-.71-5.26-2.13-6.3-1.42-1.04-3.49-1.83-6.22-2.37v-6.06l16.37-6.06h7.53v44.53c0,6.77,1.36,11.62,4.09,14.57,2.73,2.95,6.93,4.42,12.61,4.42,3.82,0,7.37-.49,10.64-1.47s6.06-2.18,8.35-3.6l1.31,3.76c-3.71,3.27-8.02,6.25-12.93,8.92-4.91,2.68-10.42,4.01-16.54,4.01-7.2,0-12.85-2.48-16.94-7.45-4.09-4.97-6.14-11.87-6.14-20.71v-26.19ZM324.45,90.47v-42.4c0-2.95-.71-4.99-2.13-6.14-1.42-1.15-3.49-1.94-6.22-2.37v-6.06l16.37-6.06h7.53v54.03c0,3.06.68,5.24,2.05,6.55,1.36,1.31,3.52,2.13,6.47,2.46v6.06l-14.57,5.4h-2.78l-6.71-11.46Z"/>
        <path class="cls-1" d="M394.85,102.59c-6.77,0-12.83-1.58-18.17-4.75-5.35-3.17-9.5-7.56-12.44-13.18-2.95-5.62-4.42-12.14-4.42-19.56,0-7.86,1.55-14.68,4.67-20.46,3.11-5.78,7.34-10.29,12.69-13.51,5.35-3.22,11.4-4.83,18.17-4.83s12.52,1.53,17.93,4.58c5.4,3.06,9.74,7.4,13.02,13.02,3.27,5.62,4.91,12.31,4.91,20.06s-1.56,14.22-4.67,20.06c-3.11,5.84-7.4,10.4-12.85,13.67-5.46,3.27-11.73,4.91-18.83,4.91ZM395.83,94.24c4.04,0,7.42-1.25,10.15-3.77,2.73-2.51,4.77-5.98,6.14-10.4,1.36-4.42,2.05-9.36,2.05-14.82s-.74-10.81-2.21-15.39-3.66-8.24-6.55-10.97c-2.89-2.73-6.41-4.09-10.56-4.09-3.82,0-7.1,1.23-9.82,3.68-2.73,2.46-4.8,5.81-6.22,10.07-1.42,4.26-2.13,9.17-2.13,14.73s.74,11.03,2.21,15.72c1.47,4.69,3.63,8.41,6.47,11.13,2.84,2.73,6.33,4.09,10.48,4.09Z"/>
        <path class="cls-1" d="M476.71,101.44h-32.09v-5.89c2.95-.66,5.1-1.58,6.47-2.78,1.36-1.2,2.05-3.27,2.05-6.22v-38.31c0-2.95-.71-5.02-2.13-6.22-1.42-1.2-3.55-2.02-6.39-2.46v-6.06l16.37-6.06h6.88v11.3h.66v47.64c0,3.06.71,5.21,2.13,6.47,1.42,1.26,3.44,2.16,6.06,2.7v5.89ZM526.48,101.44h-32.09v-5.89c2.73-.54,4.77-1.45,6.14-2.7,1.36-1.25,2.05-3.41,2.05-6.47v-29.47c0-6.88-1.31-11.76-3.93-14.65-2.62-2.89-6.55-4.34-11.79-4.34-3.93,0-7.5.47-10.72,1.39-3.22.93-6.14,2.16-8.76,3.68l-1.47-4.09c3.82-3.27,8.13-6.19,12.93-8.76,4.8-2.56,10.26-3.85,16.37-3.85,7.42,0,13.1,2.48,17.03,7.45,3.93,4.97,5.89,11.87,5.89,20.71v32.09c0,2.95.68,5.02,2.05,6.22,1.36,1.2,3.46,2.13,6.3,2.78v5.89Z"/>
        <path class="cls-1" d="M572.48,102.59c-6.77,0-12.83-1.58-18.17-4.75-5.35-3.17-9.5-7.56-12.44-13.18-2.95-5.62-4.42-12.14-4.42-19.56,0-7.86,1.55-14.68,4.67-20.46,3.11-5.78,7.34-10.29,12.69-13.51,5.35-3.22,11.4-4.83,18.17-4.83s12.52,1.53,17.93,4.58c5.4,3.06,9.74,7.4,13.02,13.02,3.27,5.62,4.91,12.31,4.91,20.06s-1.56,14.22-4.67,20.06c-3.11,5.84-7.4,10.4-12.85,13.67-5.46,3.27-11.73,4.91-18.83,4.91ZM573.47,94.24c4.04,0,7.42-1.25,10.15-3.77,2.73-2.51,4.77-5.98,6.14-10.4,1.36-4.42,2.05-9.36,2.05-14.82s-.74-10.81-2.21-15.39-3.66-8.24-6.55-10.97c-2.89-2.73-6.41-4.09-10.56-4.09-3.82,0-7.1,1.23-9.82,3.68-2.73,2.46-4.8,5.81-6.22,10.07-1.42,4.26-2.13,9.17-2.13,14.73s.74,11.03,2.21,15.72c1.47,4.69,3.63,8.41,6.47,11.13,2.84,2.73,6.33,4.09,10.48,4.09Z"/>
        <path class="cls-1" d="M664.98,90.64l1.8,5.57c-2.4,1.64-5.43,3.14-9.09,4.5-3.66,1.36-7.34,2.05-11.05,2.05-6.55,0-11.46-1.96-14.73-5.89-3.27-3.93-4.91-9.28-4.91-16.04v-45.35h-8.02v-6.38c4.26-1.31,7.78-3.41,10.56-6.3,2.78-2.89,4.72-6.63,5.81-11.21h7.04v66.96c0,4.26.9,7.7,2.7,10.31,1.8,2.62,4.88,3.93,9.25,3.93,1.85,0,3.71-.22,5.57-.66,1.85-.43,3.55-.93,5.08-1.47ZM664,35.46h-31.76v-8.02h31.76v8.02Z"/>
        <path class="cls-1" d="M735.38,87.69l2.29,6.06c-2.84,1.96-6.55,3.93-11.13,5.89s-10.04,2.95-16.37,2.95c-6.88,0-12.99-1.61-18.34-4.83-5.35-3.22-9.58-7.61-12.69-13.18-3.11-5.57-4.67-12-4.67-19.32s1.5-14.08,4.5-19.97c3-5.89,7.12-10.53,12.36-13.92,5.24-3.38,11.24-5.08,18.01-5.08s12.12,1.67,16.7,4.99c4.58,3.33,8.05,7.86,10.4,13.59,2.35,5.73,3.52,12.2,3.52,19.4h-52.72v-6.88l37.49-1.8c0-3.49-.6-6.82-1.8-9.99-1.2-3.16-2.97-5.75-5.32-7.78-2.35-2.02-5.32-3.03-8.92-3.03-4.04,0-7.34,1.23-9.91,3.68-2.57,2.46-4.5,5.68-5.81,9.66-1.31,3.99-1.96,8.21-1.96,12.69,0,9.93,2.29,17.63,6.88,23.08,4.58,5.46,10.64,8.19,18.17,8.19,3.27,0,6.71-.49,10.31-1.47,3.6-.98,6.6-1.96,9-2.95Z"/>
      </g>
      <g>
        <path class="cls-2" d="M141.99,67.53c-.61,0-1.23-.11-1.83-.35l-1.63-.65c-2.97-1.18-5.54-3.33-7.42-6.22l-6.85-10.52c-1.09-1.67-2.54-2.63-4.08-2.69-1.46-.04-2.89.72-4.02,2.19l-7.21,9.38c-2.97,3.86-7.25,6.07-11.75,6.07h-.09c-4.54-.03-8.84-2.31-11.79-6.26l-7.35-9.82c-1.09-1.46-2.48-2.27-3.91-2.27-1.46-.01-2.81.78-3.91,2.21l-7.7,10.08c-2.97,3.89-7.26,6.12-11.78,6.12h0c-4.52,0-8.82-2.24-11.78-6.13l-7.55-9.9c-1.09-1.43-2.47-2.22-3.89-2.22-.01,0-.03,0-.04,0-1.46.02-2.86.85-3.95,2.36l-8.78,12.09c-1.78,2.45-4.11,4.32-6.73,5.4l-1.09.45c-2.54,1.04-5.44-.17-6.48-2.7-1.04-2.54.17-5.44,2.7-6.48l1.09-.45c.92-.38,1.77-1.09,2.47-2.05l8.78-12.09c2.94-4.05,7.27-6.4,11.87-6.45.05,0,.11,0,.16,0,4.53,0,8.81,2.23,11.79,6.13l7.55,9.9c1.09,1.43,2.47,2.22,3.89,2.22h0c1.42,0,2.8-.79,3.89-2.21l7.7-10.08c2.97-3.89,7.26-6.12,11.78-6.12.02,0,.04,0,.07,0,4.55.02,8.86,2.3,11.82,6.26l7.35,9.82c1.09,1.46,2.48,2.26,3.91,2.27h.03c1.41,0,2.78-.78,3.87-2.19l7.21-9.38c3.1-4.04,7.57-6.26,12.28-6.06,4.78.19,9.16,2.81,12.01,7.2l6.85,10.52c.75,1.16,1.71,1.99,2.75,2.41l1.63.65c2.55,1.01,3.8,3.9,2.79,6.45-.77,1.95-2.64,3.14-4.62,3.14Z"/>
        <path class="cls-2" d="M141.99,31.06c-.61,0-1.23-.11-1.83-.35l-1.63-.65c-2.97-1.18-5.53-3.33-7.42-6.22l-6.85-10.52c-1.09-1.68-2.54-2.63-4.08-2.69-1.46-.04-2.89.72-4.02,2.19l-7.21,9.38c-2.97,3.86-7.25,6.07-11.75,6.07h-.09c-4.54-.03-8.84-2.31-11.79-6.26l-7.35-9.82c-1.09-1.46-2.48-2.27-3.92-2.27h-.02c-1.42,0-2.8.79-3.89,2.21l-7.7,10.08c-2.97,3.89-7.26,6.12-11.78,6.12h0c-4.52,0-8.82-2.24-11.78-6.13l-7.55-9.9c-1.09-1.43-2.47-2.22-3.89-2.22-.01,0-.03,0-.04,0-1.46.02-2.86.85-3.95,2.36l-8.78,12.09c-1.78,2.45-4.11,4.32-6.73,5.4l-1.09.45c-2.54,1.04-5.44-.17-6.48-2.7-1.04-2.54.17-5.44,2.7-6.48l1.09-.45c.92-.38,1.77-1.09,2.47-2.05L15.42,6.61C18.36,2.57,22.69.22,27.3.16c.05,0,.11,0,.16,0,4.53,0,8.82,2.23,11.79,6.13l7.55,9.9c1.09,1.43,2.47,2.22,3.89,2.22h0c1.42,0,2.8-.79,3.89-2.21l7.7-10.08c2.97-3.89,7.26-6.12,11.78-6.12h.07c4.55.02,8.86,2.3,11.82,6.26l7.35,9.82c1.09,1.46,2.48,2.26,3.91,2.27h.03c1.41,0,2.78-.78,3.87-2.19l7.21-9.38c3.1-4.04,7.6-6.26,12.28-6.06,4.78.19,9.16,2.81,12.01,7.2l6.85,10.52c.75,1.16,1.71,1.99,2.75,2.41l1.63.65c2.55,1.01,3.8,3.9,2.79,6.45-.77,1.95-2.64,3.14-4.62,3.14Z"/>
        <path class="cls-2" d="M141.99,104c-.61,0-1.23-.11-1.83-.35l-1.63-.65c-2.97-1.18-5.54-3.33-7.42-6.22l-6.85-10.52c-1.09-1.67-2.54-2.63-4.08-2.69-1.49-.06-2.89.72-4.02,2.19l-7.21,9.38c-2.97,3.86-7.25,6.07-11.75,6.07h-.09c-4.54-.03-8.84-2.31-11.79-6.26l-7.35-9.82c-1.09-1.46-2.48-2.27-3.91-2.27-1.44.01-2.81.78-3.91,2.21l-7.7,10.08c-2.97,3.89-7.26,6.12-11.78,6.12h0c-4.52,0-8.82-2.24-11.78-6.13l-7.55-9.9c-1.09-1.43-2.47-2.22-3.89-2.22h-.04c-1.46.02-2.86.85-3.95,2.36l-8.78,12.09c-1.78,2.45-4.11,4.32-6.73,5.4l-1.09.45c-2.54,1.04-5.44-.17-6.48-2.7-1.04-2.54.17-5.44,2.7-6.48l1.09-.45c.92-.38,1.77-1.09,2.47-2.05l8.78-12.09c2.94-4.05,7.27-6.4,11.87-6.45.05,0,.11,0,.16,0,4.53,0,8.82,2.23,11.79,6.13l7.55,9.9c1.09,1.43,2.47,2.22,3.89,2.22h0c1.42,0,2.8-.79,3.89-2.21l7.7-10.08c2.97-3.89,7.26-6.12,11.78-6.12h.07c4.55.02,8.86,2.3,11.82,6.26l7.35,9.82c1.09,1.46,2.48,2.26,3.91,2.27,1.39,0,2.8-.77,3.9-2.19l7.21-9.38c3.1-4.04,7.58-6.25,12.28-6.06,4.78.19,9.16,2.81,12.01,7.2l6.85,10.52c.75,1.16,1.71,1.99,2.75,2.41l1.63.65c2.55,1.01,3.8,3.9,2.79,6.45-.77,1.95-2.64,3.14-4.62,3.14Z"/>
      </g>
    </g>
  </g>
</svg>